<?xml version="1.0" encoding="UTF-8"?>
<svg id="Capa_2" data-name="Capa 2" xmlns="http://www.w3.org/2000/svg" xmlns:xlink="http://www.w3.org/1999/xlink" viewBox="0 0 39.96 44">
  <defs>
    <style>
      .cls-1 {
        clip-path: url(#clippath-4);
      }

      .cls-1, .cls-2, .cls-3, .cls-4, .cls-5, .cls-6, .cls-7, .cls-8, .cls-9, .cls-10, .cls-11, .cls-12, .cls-13, .cls-14, .cls-15, .cls-16, .cls-17, .cls-18, .cls-19, .cls-20, .cls-21, .cls-22, .cls-23 {
        fill: none;
      }

      .cls-2 {
        clip-path: url(#clippath-2);
      }

      .cls-3 {
        clip-path: url(#clippath-6);
      }

      .cls-4 {
        clip-path: url(#clippath-9);
      }

      .cls-5 {
        clip-path: url(#clippath-12);
      }

      .cls-6 {
        clip-path: url(#clippath-13);
      }

      .cls-7 {
        clip-path: url(#clippath-21);
      }

      .cls-8 {
        clip-path: url(#clippath-7);
      }

      .cls-9 {
        clip-path: url(#clippath-18);
      }

      .cls-10 {
        clip-path: url(#clippath-10);
      }

      .cls-11 {
        clip-path: url(#clippath-5);
      }

      .cls-24 {
        fill: #35346a;
      }

      .cls-24, .cls-25 {
        fill-rule: evenodd;
      }

      .cls-12 {
        clip-path: url(#clippath-16);
      }

      .cls-13 {
        clip-path: url(#clippath-15);
      }

      .cls-14 {
        clip-path: url(#clippath-3);
      }

      .cls-15 {
        clip-path: url(#clippath-11);
      }

      .cls-16 {
        clip-rule: evenodd;
      }

      .cls-17 {
        clip-path: url(#clippath-19);
      }

      .cls-18 {
        clip-path: url(#clippath-20);
      }

      .cls-19 {
        clip-path: url(#clippath-17);
      }

      .cls-20 {
        clip-path: url(#clippath);
      }

      .cls-21 {
        clip-path: url(#clippath-1);
      }

      .cls-22 {
        clip-path: url(#clippath-8);
      }

      .cls-23 {
        clip-path: url(#clippath-14);
      }

      .cls-25, .cls-26 {
        fill: #2fb8a7;
      }
    </style>
    <clipPath id="clippath">
      <path class="cls-16" d="m17.28,9.18c.01.45-.22.87-.63,1.09l-.09.05c-.42.22-.92.2-1.33-.04-.79-.46-1.82-.51-2.69-.04-.87.46-1.34,1.32-1.31,2.19.01.45-.22.87-.63,1.09l-.09.05c-.4.22-.9.21-1.3-.02-.87-.52-2.04-.54-2.96.08-.98.66-1.35,1.91-.86,2.94.64,1.36,2.37,1.87,3.71,1.15.84-.45,1.31-1.27,1.31-2.12,0-.43.27-.82.67-1.04l.15-.08c.4-.22.9-.23,1.3-.02.78.43,1.78.46,2.62.01.84-.45,1.31-1.27,1.31-2.12,0-.43.27-.82.67-1.04l.18-.1c.39-.21.87-.22,1.25,0,.75.41,1.69.46,2.51.08h0s.07-.04.11-.05c.02,0,.03-.01.05-.02.41-.23.92-.22,1.33,0l.09.05c.42.22.67.64.66,1.09,0,.86.46,1.7,1.33,2.15,1.16.61,2.66.3,3.43-.72.87-1.15.52-2.73-.74-3.47-.85-.51-1.9-.5-2.71-.06-.42.23-.94.24-1.36.01l-.08-.04c-.41-.22-.67-.63-.66-1.07,0-.02,0-.03,0-.05,0-.38-.09-.76-.28-1.11-.69-1.25-2.35-1.7-3.64-1.01-.86.46-1.34,1.32-1.31,2.18h0Z"/>
    </clipPath>
    <clipPath id="clippath-1">
      <path class="cls-16" d="m22.42,9.12c-.01.45.22.87.63,1.09l.09.05c.42.22.92.2,1.33-.04.79-.46,1.82-.51,2.69-.04.87.46,1.34,1.32,1.31,2.19-.01.45.22.87.63,1.09l.09.05c.4.22.9.21,1.3-.02.87-.52,2.04-.54,2.96.08.98.66,1.35,1.91.86,2.94-.64,1.36-2.37,1.87-3.71,1.15-.84-.45-1.31-1.27-1.31-2.12,0-.43-.27-.82-.67-1.04l-.15-.08c-.4-.22-.9-.23-1.3-.02-.78.43-1.78.46-2.62.01-.84-.45-1.31-1.27-1.31-2.12,0-.43-.27-.82-.67-1.04l-.18-.1c-.39-.21-.87-.22-1.25,0-.75.41-1.69.46-2.51.08h0s-.07-.04-.11-.05c-.02,0-.03-.01-.05-.02-.41-.23-.92-.22-1.33,0l-.09.05c-.42.22-.67.64-.66,1.09,0,.86-.46,1.7-1.33,2.15-1.16.61-2.66.3-3.43-.72-.87-1.15-.52-2.73.74-3.47.85-.51,1.9-.5,2.71-.06.42.23.94.24,1.36.01l.08-.04c.41-.22.67-.63.66-1.08,0-.02,0-.03,0-.05,0-.38.09-.76.28-1.11.69-1.25,2.35-1.7,3.64-1.01.87.46,1.34,1.32,1.31,2.18h0Z"/>
    </clipPath>
    <clipPath id="clippath-2">
      <path class="cls-16" d="m33.98,9.01c.55-.95.23-2.17-.72-2.73-.95-.55-2.17-.23-2.73.73-.55.95-.23,2.17.72,2.73.95.55,2.17.23,2.73-.72h0Z"/>
    </clipPath>
    <clipPath id="clippath-3">
      <path class="cls-16" d="m28.16,5.46c.55-.95.23-2.18-.72-2.73-.95-.55-2.17-.23-2.73.72-.55.95-.23,2.18.72,2.73.95.55,2.17.23,2.73-.72h0Z"/>
    </clipPath>
    <clipPath id="clippath-4">
      <path class="cls-16" d="m5.71,9.33c.55.96,1.77,1.28,2.72.74.96-.55,1.29-1.77.74-2.72-.55-.96-1.77-1.29-2.72-.74-.96.55-1.29,1.77-.74,2.72h0Z"/>
    </clipPath>
    <clipPath id="clippath-5">
      <path class="cls-16" d="m11.69,6.03c.55.95,1.77,1.28,2.72.74.96-.55,1.29-1.77.74-2.72-.55-.96-1.77-1.28-2.72-.74-.96.55-1.29,1.77-.74,2.72h0Z"/>
    </clipPath>
    <clipPath id="clippath-6">
      <path class="cls-16" d="m1.05,10.32c.96-.55,2.18-.22,2.72.74.55.96.22,2.17-.74,2.72-.96.55-2.17.22-2.72-.74-.55-.96-.22-2.18.74-2.72h0Z"/>
    </clipPath>
    <clipPath id="clippath-7">
      <path class="cls-16" d="m9.08,30.08c.4-.23.9-.25,1.31-.03l.09.05c.41.22.64.64.62,1.08-.03.86.44,1.7,1.29,2.16.85.46,1.87.42,2.65-.03.4-.23.9-.25,1.31-.03l.09.05c.4.21.64.62.62,1.04-.05.95.51,1.89,1.54,2.32,1.09.46,2.41.13,3.12-.76.93-1.18.54-2.81-.78-3.53-.83-.45-1.81-.42-2.59,0-.4.21-.89.19-1.28-.02l-.15-.08c-.39-.21-.66-.6-.66-1.03,0-.83-.46-1.65-1.29-2.1-.83-.45-1.81-.42-2.59,0-.4.21-.89.19-1.28-.02l-.18-.1c-.38-.21-.63-.59-.62-1,0-.8-.41-1.58-1.17-2.04h0s-.07-.04-.1-.06c-.02,0-.03-.02-.05-.03-.41-.21-.65-.62-.65-1.06v-.09c0-.44.26-.85.68-1.06.79-.42,1.33-1.21,1.32-2.13-.01-1.22-1.04-2.27-2.35-2.38-1.48-.12-2.76.93-2.82,2.3-.04.93.48,1.75,1.29,2.19.42.23.69.63.69,1.08v.09c0,.44-.25.85-.66,1.06-.02,0-.03.02-.05.03-.35.18-.65.45-.88.77-.81,1.17-.4,2.71.87,3.4.85.46,1.87.42,2.65-.03h0Z"/>
    </clipPath>
    <clipPath id="clippath-8">
      <path class="cls-16" d="m30.72,30.08c-.4-.23-.9-.25-1.31-.03l-.09.05c-.41.22-.64.64-.62,1.08.03.86-.44,1.7-1.29,2.16-.85.46-1.87.42-2.65-.03-.4-.23-.9-.25-1.31-.03l-.09.05c-.4.21-.64.62-.62,1.04.05.95-.51,1.89-1.53,2.32-1.09.46-2.41.13-3.12-.76-.93-1.18-.54-2.81.78-3.53.83-.45,1.81-.42,2.59,0,.4.21.89.19,1.28-.02l.15-.08c.39-.21.66-.6.66-1.03,0-.83.46-1.65,1.29-2.1.83-.45,1.81-.42,2.59,0,.4.21.89.19,1.28-.02l.18-.1c.38-.21.63-.59.62-1,0-.8.41-1.58,1.17-2.04h0s.07-.04.1-.06c.02,0,.03-.02.05-.03.41-.21.65-.62.65-1.06v-.09c0-.44-.26-.85-.67-1.06-.79-.42-1.33-1.21-1.32-2.13.01-1.22,1.04-2.27,2.35-2.38,1.48-.12,2.76.93,2.82,2.3.04.93-.48,1.75-1.29,2.19-.42.23-.69.63-.69,1.08v.09c0,.44.25.85.66,1.06.02,0,.03.02.05.03.35.18.65.45.88.77.81,1.17.4,2.71-.87,3.4-.85.46-1.87.42-2.65-.03h0Z"/>
    </clipPath>
    <clipPath id="clippath-9">
      <path class="cls-16" d="m2.03,16.32c-1.1,0-2,.89-2,1.99,0,1.1.89,2,1.99,2,1.1,0,2-.89,2-1.99,0-1.1-.89-2-1.99-2h0Z"/>
    </clipPath>
    <clipPath id="clippath-10">
      <path class="cls-16" d="m2.01,23.17c-1.1,0-2,.89-2,1.99,0,1.1.89,2,1.99,2,1.1,0,2-.89,2-1.99,0-1.1-.89-2-1.99-2h0Z"/>
    </clipPath>
    <clipPath id="clippath-11">
      <path class="cls-16" d="m14.73,40.19c.55-.95.23-2.18-.72-2.73-.95-.55-2.17-.23-2.73.72-.55.95-.23,2.18.72,2.73.95.55,2.17.23,2.73-.72h0Z"/>
    </clipPath>
    <clipPath id="clippath-12">
      <path class="cls-16" d="m8.92,36.71c.55-.95.23-2.17-.72-2.73-.95-.56-2.17-.23-2.73.72-.55.95-.23,2.17.72,2.73.95.56,2.17.23,2.73-.72h0Z"/>
    </clipPath>
    <clipPath id="clippath-13">
      <path class="cls-16" d="m18.88,43.73c-.95-.55-1.28-1.77-.72-2.73.55-.95,1.77-1.28,2.73-.73.95.56,1.28,1.77.72,2.73-.55.95-1.77,1.28-2.73.72h0Z"/>
    </clipPath>
    <clipPath id="clippath-14">
      <path class="cls-16" d="m3.72,32.44c.55-.95.23-2.18-.72-2.73-.95-.55-2.17-.23-2.73.72-.55.95-.23,2.18.72,2.73.95.55,2.17.23,2.73-.72h0Z"/>
    </clipPath>
    <clipPath id="clippath-15">
      <path class="cls-16" d="m25.5,38.24c.96-.55,2.18-.22,2.72.74.55.96.22,2.18-.74,2.72s-2.18.22-2.72-.74c-.55-.96-.22-2.18.74-2.72h0Z"/>
    </clipPath>
    <clipPath id="clippath-16">
      <path class="cls-16" d="m31.08,34.18c.96-.55,2.18-.22,2.72.74.55.95.22,2.17-.74,2.72-.96.55-2.18.22-2.72-.74-.55-.95-.22-2.17.74-2.72h0Z"/>
    </clipPath>
    <clipPath id="clippath-17">
      <path class="cls-16" d="m39.95,18.4c0,1.1-.9,2-2,1.99-1.1,0-1.99-.9-1.99-2,0-1.1.9-1.99,2-1.99,1.1,0,1.99.9,1.99,2h0Z"/>
    </clipPath>
    <clipPath id="clippath-18">
      <path class="cls-16" d="m39.93,25.25c0,1.1-.9,2-2,1.99-1.1,0-1.99-.9-1.99-2,0-1.1.9-1.99,2-1.99,1.1,0,1.99.9,1.99,2h0Z"/>
    </clipPath>
    <clipPath id="clippath-19">
      <path class="cls-16" d="m39.92,31.52c0,1.1-.9,2-2,1.99-1.1,0-1.99-.9-1.99-2,0-1.1.9-1.99,2-1.99,1.1,0,1.99.9,1.99,2h0Z"/>
    </clipPath>
    <clipPath id="clippath-20">
      <path class="cls-16" d="m37.97,10.13c-1.1,0-2,.89-2,1.99,0,1.1.89,2,1.99,2,1.1,0,2-.89,2-1.99,0-1.1-.89-2-1.99-2h0Z"/>
    </clipPath>
    <clipPath id="clippath-21">
      <path class="cls-16" d="m17.45,3.34c.61,1.07,1.97,1.44,3.04.82,1.07-.61,1.43-1.97.82-3.04-.61-1.07-1.97-1.44-3.04-.82-1.07.61-1.43,1.97-.82,3.04h0Z"/>
    </clipPath>
  </defs>
  <g id="Capa_1-2" data-name="Capa 1">
    <g>
      <g class="cls-20">
        <polygon class="cls-25" points="31.43 3.85 2.34 3.78 2.3 20.89 31.39 20.95 31.43 3.85 31.43 3.85"/>
      </g>
      <g class="cls-21">
        <polygon class="cls-25" points="8.28 3.78 37.36 3.71 37.4 20.82 8.32 20.89 8.28 3.78 8.28 3.78"/>
      </g>
      <g class="cls-2">
        <polygon class="cls-25" points="37.12 3.17 27.42 3.15 27.4 12.84 37.09 12.86 37.12 3.17 37.12 3.17"/>
      </g>
      <g class="cls-14">
        <polygon class="cls-25" points="31.29 -.38 21.6 -.4 21.58 9.29 31.27 9.31 31.29 -.38 31.29 -.38"/>
      </g>
      <g class="cls-1">
        <polygon class="cls-25" points="12.3 3.5 2.61 3.48 2.59 13.17 12.28 13.19 12.3 3.5 12.3 3.5"/>
      </g>
      <g class="cls-11">
        <polygon class="cls-25" points="18.28 .2 8.58 .18 8.56 9.87 18.25 9.9 18.28 .2 18.28 .2"/>
      </g>
      <g class="cls-3">
        <polygon class="cls-25" points="6.9 7.21 -2.8 7.19 -2.82 16.88 6.88 16.91 6.9 7.21 6.9 7.21"/>
      </g>
      <g class="cls-8">
        <polygon class="cls-24" points="25.12 16.38 2.32 16.32 2.26 39.7 25.07 39.76 25.12 16.38 25.12 16.38"/>
      </g>
      <g class="cls-22">
        <polygon class="cls-24" points="14.68 16.38 37.49 16.32 37.54 39.7 14.73 39.76 14.68 16.38 14.68 16.38"/>
      </g>
      <g class="cls-4">
        <polygon class="cls-24" points="6.88 13.48 -2.81 13.46 -2.83 23.16 6.86 23.18 6.88 13.48 6.88 13.48"/>
      </g>
      <g class="cls-10">
        <polygon class="cls-24" points="6.87 20.33 -2.83 20.3 -2.85 30 6.85 30.02 6.87 20.33 6.87 20.33"/>
      </g>
      <g class="cls-15">
        <polygon class="cls-24" points="17.86 34.35 8.17 34.33 8.15 44.02 17.84 44.04 17.86 34.35 17.86 34.35"/>
      </g>
      <g class="cls-5">
        <polygon class="cls-24" points="12.05 30.87 2.36 30.85 2.34 40.54 12.03 40.57 12.05 30.87 12.05 30.87"/>
      </g>
      <g class="cls-6">
        <polygon class="cls-24" points="24.74 37.17 15.05 37.15 15.02 46.84 24.72 46.87 24.74 37.17 24.74 37.17"/>
      </g>
      <g class="cls-23">
        <polygon class="cls-24" points="6.85 26.6 -2.84 26.58 -2.86 36.27 6.83 36.29 6.85 26.6 6.85 26.6"/>
      </g>
      <g class="cls-13">
        <polygon class="cls-24" points="31.35 35.14 21.65 35.12 21.63 44.81 31.33 44.83 31.35 35.14 31.35 35.14"/>
      </g>
      <g class="cls-12">
        <polygon class="cls-24" points="36.93 31.08 27.23 31.05 27.21 40.75 36.91 40.77 36.93 31.08 36.93 31.08"/>
      </g>
      <g class="cls-19">
        <polygon class="cls-24" points="42.81 13.57 33.11 13.54 33.09 23.24 42.79 23.26 42.81 13.57 42.81 13.57"/>
      </g>
      <g class="cls-9">
        <polygon class="cls-24" points="42.79 20.41 33.1 20.39 33.08 30.08 42.77 30.1 42.79 20.41 42.79 20.41"/>
      </g>
      <g class="cls-17">
        <polygon class="cls-24" points="42.78 26.68 33.08 26.66 33.06 36.35 42.76 36.37 42.78 26.68 42.78 26.68"/>
      </g>
      <g class="cls-18">
        <polygon class="cls-25" points="42.82 7.29 33.13 7.27 33.11 16.96 42.8 16.99 42.82 7.29 42.82 7.29"/>
      </g>
      <g class="cls-7">
        <polygon class="cls-25" points="24.8 -3.17 13.98 -3.19 13.96 7.62 24.77 7.65 24.8 -3.17 24.8 -3.17"/>
      </g>
      <path class="cls-26" d="m19.7,16.79c-2.87,0-5.21,2.29-5.21,5.11s2.34,5.11,5.21,5.11,5.21-2.29,5.21-5.11-2.34-5.11-5.21-5.11h0Zm2.99,4.25l-3.27,3.21c-.14.14-.32.21-.52.21s-.38-.08-.52-.21l-1.67-1.64c-.14-.14-.22-.32-.22-.51s.08-.37.22-.51.32-.21.52-.21.38.08.52.21l1.15,1.13,2.75-2.7c.14-.14.32-.21.52-.21s.38.08.52.21c.29.28.29.74,0,1.02h0Z"/>
    </g>
  </g>
</svg>